<?xml version="1.0" standalone="no"?>
<!DOCTYPE svg PUBLIC "-//W3C//DTD SVG 20010904//EN"
 "http://www.w3.org/TR/2001/REC-SVG-20010904/DTD/svg10.dtd">
<svg version="1.0" xmlns="http://www.w3.org/2000/svg"
 width="626.000000pt" height="626.000000pt" viewBox="0 0 626.000000 626.000000"
 preserveAspectRatio="xMidYMid meet">

<g transform="translate(0.000000,626.000000) scale(0.100000,-0.100000)"
fill="#000000" stroke="none">
<path d="M3039 5676 c-215 -45 -412 -194 -513 -386 -59 -112 -88 -226 -93
-377 -8 -183 20 -353 92 -562 14 -41 23 -76 21 -78 -2 -3 -16 3 -30 12 -14 10
-26 15 -26 12 0 -3 16 -15 35 -27 35 -22 36 -22 58 -4 l22 19 -19 -22 c-10
-12 -31 -25 -47 -28 -16 -4 -29 -11 -29 -16 0 -5 -3 -8 -7 -7 -5 1 -28 -4 -52
-11 -23 -7 -49 -10 -57 -7 -8 3 -14 2 -14 -3 0 -4 -19 -14 -42 -21 -195 -58
-345 -213 -356 -369 -6 -83 11 -129 84 -231 36 -50 72 -110 80 -133 16 -43 11
-113 -7 -102 -13 9 -99 -36 -92 -48 3 -6 1 -7 -5 -3 -6 4 -26 -1 -44 -10 -38
-19 -150 -86 -158 -94 -3 -3 -23 -17 -45 -31 -59 -38 -159 -131 -215 -198
-124 -149 -225 -432 -318 -891 -90 -440 -120 -966 -67 -1169 34 -133 99 -286
116 -276 5 4 6 0 4 -7 -6 -16 65 -123 82 -123 6 0 15 -4 20 -9 5 -5 3 -6 -4
-2 -25 14 -12 -10 22 -41 185 -170 380 -211 630 -133 224 69 723 289 709 312
-4 7 -3 8 4 4 15 -9 208 92 249 130 12 10 39 30 61 43 23 14 38 29 35 34 -3 6
-1 7 5 3 9 -5 162 81 187 107 7 7 5 7 -4 2 -10 -5 -12 -4 -7 4 4 6 11 9 16 6
14 -8 211 115 204 127 -4 7 -2 8 4 4 6 -4 41 11 78 34 36 22 68 40 71 40 3 0
30 15 60 33 47 27 54 35 50 57 -5 25 -34 123 -110 362 l-40 128 -41 -6 c-162
-24 -992 -266 -980 -286 3 -4 -1 -5 -9 -2 -8 3 -170 -47 -360 -110 -190 -64
-348 -116 -351 -116 -3 0 -6 6 -6 13 0 8 25 21 59 32 l59 18 6 56 c8 69 36
429 36 453 0 10 7 18 16 18 14 0 15 -11 9 -82 l-7 -83 148 -2 c189 -3 359 -27
569 -82 21 -5 53 0 110 17 44 13 81 25 83 27 3 3 2 955 -1 1010 -2 29 -1 30
36 27 20 -2 37 -2 38 0 0 2 3 136 5 298 l5 295 -55 -60 c-31 -33 -55 -53 -55
-45 0 25 21 54 99 140 76 83 88 100 73 100 -7 0 -63 42 -131 100 -12 10 -30
36 -38 57 -29 67 -72 120 -143 171 -101 74 -116 99 -116 197 0 65 6 94 30 157
30 77 30 77 77 88 26 7 64 10 85 8 38 -3 38 -3 44 39 5 39 2 46 -33 85 -79 86
-144 204 -183 328 -15 48 -22 57 -55 71 -27 12 -43 28 -60 63 -51 106 12 220
86 158 15 -13 22 -34 27 -76 11 -109 90 -181 195 -177 53 2 76 12 124 59 28
27 40 48 49 89 7 37 15 53 24 50 7 -3 17 -1 22 4 6 6 19 6 35 0 19 -7 27 -19
31 -49 18 -112 145 -183 254 -141 68 25 129 125 116 191 -4 20 2 31 26 49 16
12 28 26 25 31 -3 4 -17 -1 -31 -12 l-26 -20 -17 27 c-24 38 -59 70 -93 82
-66 25 -167 3 -207 -45 -12 -15 -54 -91 -55 -101 0 -1 -17 2 -38 7 -21 4 -39
4 -43 -1 -9 -15 -24 -10 -24 7 0 31 -42 91 -83 118 -37 24 -50 27 -103 24 -72
-4 -134 -40 -154 -89 -14 -34 -14 -34 -45 -13 -22 14 -25 23 -25 78 0 33 4 66
8 72 4 6 26 14 49 17 23 4 48 10 57 13 11 4 15 -1 13 -23 -2 -25 1 -28 23 -24
14 2 57 4 95 5 69 1 71 2 67 36 -1 6 -20 19 -42 29 l-40 18 41 16 c63 25 187
101 259 158 36 29 60 46 54 38 -56 -74 -86 -105 -133 -141 -77 -58 -77 -58
-59 -58 27 0 135 96 185 163 25 34 47 64 49 66 11 11 -27 -82 -60 -147 -20
-40 -32 -72 -26 -72 11 0 82 138 94 182 5 20 10 16 42 -42 52 -93 125 -181
199 -240 51 -40 65 -58 65 -78 0 -34 11 -51 41 -66 36 -17 51 -54 45 -109 -7
-64 -33 -106 -80 -127 -34 -16 -41 -26 -61 -81 -32 -92 -86 -195 -139 -265
-71 -95 -63 -106 33 -44 185 119 325 338 361 562 18 111 8 305 -19 393 -99
313 -438 516 -752 451z m-46 -723 c94 -59 101 -201 12 -268 -74 -57 -173 -50
-229 15 -13 16 -26 27 -28 24 -3 -2 -5 2 -6 9 -1 6 -4 35 -8 62 -3 28 -1 61 4
75 5 14 10 29 10 33 1 13 73 67 96 72 71 15 96 11 149 -22z m478 2 c39 -25 79
-95 79 -137 0 -103 -105 -191 -206 -172 -41 8 -98 53 -120 95 -7 15 -14 48
-14 73 0 140 144 218 261 141z m-713 -622 c-10 -2 -26 -2 -35 0 -10 3 -2 5 17
5 19 0 27 -2 18 -5z m48 -89 c-9 -8 -11 -9 -6 -2 6 7 11 21 11 33 1 18 2 18 6
1 3 -10 -2 -25 -11 -32z m-53 -31 c-7 -2 -19 -2 -25 0 -7 3 -2 5 12 5 14 0 19
-2 13 -5z m-53 -59 c0 -2 -9 0 -20 6 -11 6 -20 13 -20 16 0 2 9 0 20 -6 11 -6
20 -13 20 -16z m-340 2 c0 -2 -26 -19 -57 -39 -127 -79 -194 -180 -201 -308
-6 -100 15 -169 84 -283 61 -101 67 -132 28 -146 -38 -15 -44 -13 -44 18 -1
39 -30 97 -90 177 -70 93 -83 127 -83 206 0 146 103 274 282 350 64 28 81 33
81 25z m-122 -831 c-3 -3 -9 2 -12 12 -6 14 -5 15 5 6 7 -7 10 -15 7 -18z
m-61 -17 c-3 -8 -6 -5 -6 6 -1 11 2 17 5 13 3 -3 4 -12 1 -19z m-60 -360 c-3
-7 -5 -2 -5 12 0 14 2 19 5 13 2 -7 2 -19 0 -25z m686 -203 c-3 -9 -8 -14 -10
-11 -3 3 -2 9 2 15 9 16 15 13 8 -4z m-168 -165 c-3 -5 -12 -10 -18 -10 -7 0
-6 4 3 10 19 12 23 12 15 0z"/>
<path d="M3325 5100 c-29 -11 -48 -37 -41 -55 5 -13 16 -15 64 -9 39 4 67 2
82 -6 18 -10 25 -9 38 4 13 13 13 17 1 32 -30 36 -100 53 -144 34z"/>
<path d="M3097 4493 c18 -2 50 -2 70 0 21 2 7 4 -32 4 -38 0 -55 -2 -38 -4z"/>
<path d="M2363 4294 l-28 -25 32 22 c25 17 40 21 74 16 28 -4 38 -2 28 4 -28
17 -77 10 -106 -17z"/>
<path d="M3068 4309 c17 -18 126 -19 144 -1 10 10 6 10 -20 1 -33 -11 -80 -9
-117 6 -17 7 -18 6 -7 -6z"/>
<path d="M2331 4244 c0 -11 3 -14 6 -6 3 7 2 16 -1 19 -3 4 -6 -2 -5 -13z"/>
<path d="M2347 4209 c7 -7 15 -10 18 -7 3 3 -2 9 -12 12 -14 6 -15 5 -6 -5z"/>
<path d="M3484 3632 c-22 -20 -69 -62 -104 -92 -36 -30 -99 -86 -142 -123
l-78 -68 36 -45 c20 -24 40 -41 45 -38 5 3 8 0 7 -7 -2 -7 4 -13 12 -14 8 0
15 -4 15 -10 1 -20 26 -55 36 -50 5 4 8 3 7 -2 -5 -13 54 -73 65 -66 6 4 7 1
2 -6 -4 -8 5 -26 26 -47 27 -28 35 -32 48 -21 14 10 14 10 3 -5 -11 -14 -5
-24 45 -78 l58 -61 78 146 c42 80 74 151 71 157 -4 6 -3 8 3 5 13 -8 36 41 27
55 -4 7 -2 8 4 4 14 -8 46 50 36 66 -5 7 -3 8 6 3 10 -6 12 -4 6 11 -4 10 -4
15 0 11 8 -7 73 99 74 120 0 16 -57 46 -71 38 -5 -4 -8 -2 -7 4 2 7 -28 29
-67 49 -38 21 -96 53 -128 70 -32 18 -61 32 -65 32 -4 0 -25 -17 -48 -38z"/>
<path d="M3820 3318 c-154 -291 -168 -321 -163 -337 3 -12 2 -13 -4 -3 -7 9
-13 6 -22 -14 -9 -21 -9 -30 1 -43 11 -14 11 -14 -2 -4 -13 10 -19 6 -35 -22
-10 -19 -22 -35 -26 -35 -4 0 -23 17 -42 38 -19 20 -53 57 -76 82 -22 25 -47
45 -54 45 -6 1 -11 6 -10 11 3 15 -137 170 -149 166 -5 -1 -7 2 -4 7 4 5 2 12
-4 16 -6 4 -10 -30 -10 -98 0 -57 -3 -192 -7 -300 l-6 -197 684 -2 684 -3 2
-220 c1 -121 3 -292 3 -380 l0 -161 30 -11 c40 -15 58 -55 43 -94 -9 -24 -8
-35 5 -59 16 -28 16 -32 0 -60 -14 -24 -15 -34 -5 -60 10 -25 9 -36 -4 -58
-11 -20 -13 -32 -6 -44 15 -23 -10 -77 -39 -84 -23 -6 -24 -10 -24 -90 0 -81
1 -85 25 -94 14 -5 25 -15 25 -21 0 -6 -6 -9 -12 -6 -24 9 -183 55 -228 65
-25 6 -89 16 -144 21 -84 9 -111 7 -190 -9 -148 -31 -233 -62 -333 -118 -34
-20 -60 -39 -57 -44 3 -4 -3 -5 -12 -1 -13 5 -15 3 -9 -7 5 -8 4 -11 -3 -6 -6
3 -35 -8 -64 -25 -150 -90 -227 -142 -223 -150 3 -4 0 -11 -6 -15 -8 -4 -9 -3
-5 4 15 24 -6 13 -209 -112 -65 -41 -90 -66 -66 -66 6 0 44 -16 83 -35 173
-82 403 -169 421 -159 6 4 9 3 4 -1 -10 -11 52 -35 233 -89 322 -97 569 -129
730 -95 70 15 191 69 183 82 -3 6 -1 7 4 4 14 -9 96 51 88 63 -3 5 0 7 8 5 17
-7 51 30 42 45 -3 6 -1 9 6 8 17 -4 111 133 104 151 -3 9 -3 12 1 8 13 -13 61
106 90 227 64 268 -18 948 -185 1541 -40 140 -137 361 -199 451 -67 97 -198
216 -332 301 -168 106 -207 126 -236 122 -4 0 -10 4 -13 9 -4 8 -195 102 -205
102 0 0 -35 -64 -76 -142z m-225 -2278 c3 -6 -1 -7 -9 -4 -18 7 -21 14 -7 14
6 0 13 -4 16 -10z"/>
<path d="M3115 3289 c-17 -18 -23 -28 -15 -24 13 8 13 7 1 -8 -11 -14 -11 -17
0 -17 10 0 10 -3 3 -8 -8 -5 -13 -96 -16 -299 -4 -286 -3 -292 17 -297 11 -3
32 -6 48 -6 l27 0 0 78 c0 42 3 185 6 317 l5 240 -23 28 -23 28 -30 -32z"/>
<path d="M3101 2168 c0 -249 4 -471 8 -493 5 -23 9 164 10 453 1 322 -2 492
-9 492 -7 0 -10 -157 -9 -452z"/>
</g>
</svg>
